<?xml version="1.0" ?><svg viewBox="0 0 50 43.65" xmlns="http://www.w3.org/2000/svg"><title/><g data-name="레이어 2" id="레이어_2"><g data-name="레이어 1" id="레이어_1-2"><path d="M48,25.64a6.42,6.42,0,0,1-1.16-3.79v0A21.83,21.83,0,0,0,17.5,1.33a6.43,6.43,0,0,1-3.95.19A10.66,10.66,0,0,0,2,18,6.42,6.42,0,0,1,3.18,21.8v0A21.83,21.83,0,0,0,32.5,42.32a6.43,6.43,0,0,1,3.95-.19A10.66,10.66,0,0,0,48,25.64ZM25.8,17.91c4.4,1,11.05,2.63,11.05,10a8,8,0,0,1-5,7.75,18.18,18.18,0,0,1-7.15,1.13c-6.9,0-11.26-5.37-11.44-5.59a3.28,3.28,0,0,1,5.13-4.09,9.74,9.74,0,0,0,6.31,3.12c4.45.14,5.46-1.18,5.59-2.31.16-1.38-1.07-2.39-6-3.57-4.19-1-10.51-2.5-10.51-9.25,0-2.1.85-9,11.85-9,6.94,0,11,5.47,11.21,5.7a3.28,3.28,0,0,1-5.27,3.91,9.86,9.86,0,0,0-5.94-3c-2.66-.25-5.28.71-5.28,2.12S21.09,16.79,25.8,17.91Z" fill="#ffffff" /></g></g></svg>
